# xmcd
#
# Track frame offsets:
#	150
#	12373
#	25179
#	37431
#	53953
#	69161
#
# Disc length: 1294 seconds
#
# Revision: 0
# Processed by: cddbd v1.4PL0 Copyright (c) Steve Scherf et al.
# Submitted via: dBpowerAMP V4.0
#
DISCID=4c050c06
DTITLE=patty gutchess - patty gutchess
DYEAR=1900
DGENRE=Country - gospel
TTITLE0=crazy
TTITLE1=blue
TTITLE2=walkin' after midnight
TTITLE3=you light up my life
TTITLE4=the rose
TTITLE5=holy ground
EXTD=
EXTT0=
EXTT1=
EXTT2=
EXTT3=
EXTT4=
EXTT5=
PLAYORDER=
